<svg xmlns="http://www.w3.org/2000/svg" xmlns:xlink="http://www.w3.org/1999/xlink" width="705.712" height="604.896" style="zoom:1"><defs><linearGradient id="c"><stop offset="0" stop-color="#a18445"/><stop offset=".459" stop-color="#e4e0be"/><stop offset="1" stop-color="#89753e"/></linearGradient><linearGradient id="b"><stop offset="0" stop-color="#a18445"/><stop offset=".5" stop-color="#e4e0be"/><stop offset="1" stop-color="#89753e"/></linearGradient><linearGradient id="a"><stop offset="0" stop-color="#906739"/><stop offset="1" stop-color="#6d4f2c"/></linearGradient><linearGradient xlink:href="#a" id="d" gradientUnits="userSpaceOnUse" gradientTransform="translate(-1 -1)" x1="6.115" y1="2.579" x2="247.418" y2="219.892"/><linearGradient xlink:href="#b" id="e" gradientUnits="userSpaceOnUse" gradientTransform="translate(-6.677 1.816)" x1="382.196" y1="158.472" x2="384.652" y2="158.496"/><linearGradient xlink:href="#c" id="f" gradientUnits="userSpaceOnUse" gradientTransform="translate(-6.677 1.816)" x1="382.196" y1="158.472" x2="384.652" y2="158.496"/></defs><path color="#000" fill="#164623" overflow="visible" d="M25.204 25.204h655.304v554.488H25.204z"/><path d="M0 0v240h280V0H0zm10 10h120v220H10V10zm140 0h120v220H150V10z" color="#000" fill="url(#d)" overflow="visible" transform="scale(2.5204)"/><g fill="none" stroke-width="2.52"><path d="M351.596 12.278v574.984" stroke="#774b1f"/><path d="M354.116 12.278v574.984" stroke="#b1875a"/></g><g stroke="#000" stroke-width=".608"><path d="M79.486 25.507l24.261 242.613L128.01 25.507H79.486zm97.045 0l24.262 242.613 24.261-242.613h-48.523zm97.046 0l24.261 242.613 24.261-242.613h-48.522z" fill="#dedcae"/><path d="M30.963 25.507L55.225 268.12 79.486 25.507H30.963zm97.046 0L152.27 268.12l24.261-242.613H128.01zm97.045 0l24.261 242.613 24.262-242.613h-48.523z" fill="#da251d"/></g><g stroke="#000" stroke-width=".608"><path d="M273.577 579.389l-24.262-242.614-24.26 242.614h48.522zm-97.046 0l-24.26-242.614-24.262 242.614h48.522zm-97.045 0L55.225 336.775 30.963 579.39h48.523z" fill="#dedcae"/><path d="M322.1 579.389l-24.262-242.614-24.261 242.614h48.522zm-97.046 0l-24.261-242.614L176.53 579.39h48.523zm-97.045 0l-24.262-242.614-24.26 242.614h48.522z" fill="#da251d"/></g><g stroke="#000" stroke-width=".608"><path d="M432.342 25.507l24.261 242.613 24.262-242.613h-48.523zm97.045 0L553.65 268.12l24.26-242.613h-48.523zm97.046 0l24.261 242.613 24.261-242.613h-48.522z" fill="#dedcae"/><path d="M383.82 25.507l24.26 242.613 24.262-242.613h-48.523zm97.045 0l24.261 242.613 24.261-242.613h-48.522zm97.045 0l24.261 242.613 24.262-242.613H577.91z" fill="#da251d"/></g><g stroke="#000" stroke-width=".608"><path d="M626.433 579.389L602.17 336.775 577.91 579.39h48.523zm-97.046 0l-24.261-242.614-24.261 242.614h48.522zm-97.045 0l-24.261-242.614-24.262 242.614h48.523z" fill="#dedcae"/><path d="M674.955 579.389l-24.261-242.614-24.261 242.614h48.522zm-97.045 0l-24.261-242.614-24.262 242.614h48.523zm-97.045 0l-24.262-242.614-24.26 242.614h48.522z" fill="#da251d"/></g><g color="#000"><path fill="#5d3d21" overflow="visible" d="M346.672 38.529h12.872v28.055h-12.872z"/><path fill="url(#e)" overflow="visible" d="M375.52 154.28h2.455v7.77h-2.455z" transform="translate(-1007.205 -518.526) scale(3.61067)"/></g><g fill="none" stroke-width="1.805"><path d="M348.674 53.508l8.866-.051" stroke="#774b1f"/><path d="M348.674 51.651l8.866-.051" stroke="#b1875a"/></g><g color="#000"><path fill="#5d3d21" overflow="visible" d="M346.672 538.317h12.872v28.055h-12.872z"/><path fill="url(#f)" overflow="visible" d="M375.52 154.28h2.455v7.77h-2.455z" transform="translate(-1007.205 -18.738) scale(3.61067)"/></g><g fill="none" stroke-width="1.805"><path d="M348.674 553.296l8.866-.051" stroke="#774b1f"/><path d="M348.674 551.44l8.866-.052" stroke="#b1875a"/></g></svg>